<svg width="25" height="45" viewBox="0 0 25 45" fill="none" xmlns="http://www.w3.org/2000/svg">
<g id="Frame 1">
<path id="Vector" d="M8.29434 8.26827C7.88202 6.5509 8.72434 4.94928 9.60172 3.65121C10.5675 2.22214 12.179 0.955458 13.9787 0.5C13.6517 2.12022 12.6988 3.51778 11.7816 4.83172C10.8705 6.13709 9.72148 7.45917 8.29434 8.26827Z" fill="white"/>
<path id="Vector_2" d="M7.03923 11.5625C7.3611 10.2025 7.35396 8.71358 7.04754 7.43791C6.7781 6.31682 6.38602 4.73202 5.09558 4.19727C4.15758 5.6903 3.78052 7.72348 4.32719 9.24696C4.72247 10.3489 5.43332 11.8059 6.90755 12.0314C8.26032 12.3409 9.62822 11.6248 10.7086 11.0336C11.9098 10.3763 13.0865 9.33058 13.8014 8.08738C12.49 7.43051 10.9964 7.96357 9.87284 8.47443C8.66167 9.02515 7.54904 10.2067 7.03923 11.5625Z" fill="white"/>
<path id="Vector_3" d="M2.87363 15.2326C3.53888 16.2397 4.5683 17.5012 6.06927 17.4653C7.43419 17.533 8.6134 16.6086 9.54202 15.8372C10.5421 15.0063 11.4449 13.7912 11.826 12.4776C10.4299 12.0745 9.09337 12.8212 8.09667 13.5254C7.05585 14.2609 6.2554 15.607 6.08344 16.9891C6.07054 15.6045 5.69285 14.1743 5.08396 13.0222C4.52728 11.969 3.75154 10.5454 2.36755 10.2607C1.82227 11.8996 1.99625 13.9047 2.87363 15.2326Z" fill="white"/>
<path id="Vector_4" d="M6.51296 22.8892C5.11991 23.1208 3.76107 22.2738 2.87858 21.2776C1.74241 19.995 1.06639 18.2743 1.20426 16.5518C2.63534 16.5878 3.7192 17.8154 4.52029 18.7436C5.38307 19.7433 6.08998 21.0587 6.42911 22.4155C6.27995 21.0633 6.73745 19.6032 7.5867 18.7009C8.40644 17.83 9.55475 16.8808 10.9835 17.0331C10.9527 18.4043 10.2601 19.7106 9.5457 20.6889C8.8798 21.6007 7.85401 22.7285 6.51296 22.8892Z" fill="white"/>
<path id="Vector_5" d="M3.93981 27.4453C5.22279 28.2742 6.77885 29.0946 8.41417 28.4737C9.75576 28.0027 10.6087 26.6626 11.1334 25.4326C11.6891 24.1294 12.0603 22.6266 11.8033 21.2002C10.3291 21.33 9.10659 22.3767 8.45732 23.6544C7.77854 24.9901 7.64834 26.58 8.16976 27.9804C7.39935 26.5397 6.27267 25.374 5.07917 24.2968C3.99425 23.3177 2.43148 22.2863 0.857422 22.4803C1.15691 24.4113 2.34444 26.4147 3.93981 27.4453Z" fill="white"/>
<path id="Vector_6" d="M11.7193 33.6946C12.9818 32.9456 13.4899 31.3697 13.6976 30.0193C13.9214 28.563 13.9118 26.9568 13.3023 25.5752C11.8375 25.9812 10.8321 27.2894 10.5001 28.7223C10.1494 30.2361 10.4454 31.8496 11.2985 33.1386C10.1644 31.8474 8.65629 30.7812 7.21104 30.0337C5.81501 29.3116 4.10234 28.4406 2.42578 28.9666C3.23423 30.9245 4.96363 32.7474 6.88033 33.5014C8.36468 34.0852 10.1705 34.6626 11.7193 33.6946Z" fill="white"/>
<path id="Vector_7" d="M17.7041 34.2009C17.8894 35.6066 17.8841 37.3895 16.7843 38.4715C15.4099 39.8675 13.2829 39.5981 11.6423 39.291C9.43988 38.8783 6.96064 37.3877 5.63184 35.403C7.25469 34.5163 9.23948 35.0835 10.8461 35.5426L10.9379 35.5687C12.7313 36.0808 14.6425 36.9054 16.2408 38.0322C14.9653 36.8885 14.0359 35.2098 13.9904 33.5178C13.9495 32.0045 14.6115 30.3854 16.0359 29.6641C17.0304 30.9593 17.4961 32.6222 17.7041 34.2009Z" fill="white"/>
<path id="Vector_8" d="M24.0877 42.4524C24.8977 40.9224 24.0952 39.1268 23.4557 37.7997C22.6997 36.2307 21.6668 34.6318 20.1885 33.4834C18.769 34.6973 18.904 36.4343 19.326 37.9438C19.8278 39.7387 21.5676 41.2687 23.3691 42.1406C21.2827 41.3685 19.0041 40.9051 16.8361 40.7683L16.6165 40.7542C14.8749 40.6416 12.6076 40.4951 11.2197 41.7599C13.3181 43.53 16.2986 44.5513 18.9255 44.4982C20.6859 44.4627 23.1013 44.256 24.0877 42.4524Z" fill="white"/>
</g>
</svg>
