<svg width="24" height="45" viewBox="0 0 24 45" fill="none" xmlns="http://www.w3.org/2000/svg">
<g id="Frame 2">
<path id="Vector" d="M15.2805 3.65473C16.1556 4.95365 16.9956 6.55602 16.5825 8.27322C15.157 7.46289 14.0104 6.13986 13.1012 4.83375C12.1857 3.51887 11.235 2.12066 10.9092 0.5C12.7073 0.956763 14.317 2.2247 15.2805 3.65473Z" fill="white"/>
<path id="Vector_2" d="M17.835 11.5701C17.3272 10.2133 16.2157 9.03014 15.0063 8.47833C13.8831 7.96658 12.3916 7.43253 11.0811 8.08828C11.7943 9.33211 12.9686 10.3788 14.1685 11.037C15.2469 11.6289 16.6128 12.346 17.9649 12.0378C19.4383 11.8136 20.1505 10.3569 20.5466 9.25482C21.0949 7.73196 20.7201 5.6982 19.7843 4.2041C18.494 4.73816 18.1001 6.32266 17.8307 7.44374C17.5231 8.71982 17.5145 10.2094 17.835 11.5701Z" fill="white"/>
<path id="Vector_3" d="M16.7759 13.5306C17.8149 14.2665 18.6123 15.612 18.7837 16.9933C18.7987 15.6092 19.1777 14.1804 19.7866 13.0294C20.3434 11.9764 21.1206 10.5532 22.5035 10.2695C23.0465 11.909 22.8708 13.9142 21.9925 15.2415C21.3282 16.2469 20.2998 17.5058 18.8029 17.4721C17.437 17.5414 16.2574 16.6147 15.3291 15.8416C14.3305 15.0098 13.4298 13.794 13.0508 12.4801C14.4454 12.0779 15.7805 12.8256 16.7759 13.5306Z" fill="white"/>
<path id="Vector_4" d="M18.4326 22.4279C18.5848 21.0744 18.1291 19.6111 17.2796 18.707C16.4619 17.8353 15.3153 16.8852 13.8877 17.0365C13.9164 18.4077 14.6074 19.7148 15.3207 20.6938C15.985 21.6057 17.0081 22.7336 18.3474 22.8961C19.7399 23.1303 21.0994 22.2837 21.9831 21.2875C23.119 20.0057 23.7961 18.2854 23.6609 16.5625C22.2301 16.5976 21.1463 17.8243 20.3446 18.752C19.4801 19.7524 18.7722 21.0693 18.4326 22.4279Z" fill="white"/>
<path id="Vector_5" d="M16.4055 23.661C17.0826 24.9976 17.2114 26.5879 16.6887 27.988C17.4595 26.5474 18.5869 25.3823 19.7804 24.3059C20.8652 23.3274 22.4281 22.2973 24.0005 22.4923C23.7003 24.4234 22.5111 26.4261 20.9163 27.4555C19.6345 28.2823 18.0812 29.1011 16.4492 28.4827C15.1067 28.0125 14.2539 26.6696 13.7301 25.4374C13.1755 24.1336 12.806 22.6305 13.0647 21.2041C14.5371 21.3351 15.7582 22.3828 16.4055 23.661Z" fill="white"/>
<path id="Vector_6" d="M13.5596 33.1406C14.4113 31.8528 14.7083 30.2408 14.3602 28.7276C14.0301 27.2943 13.0262 25.9852 11.5624 25.5781C10.9523 26.9592 10.9417 28.5654 11.1631 30.0222C11.3697 31.37 11.8743 32.9429 13.1284 33.6947C14.6774 34.6704 16.4862 34.0933 17.9714 33.5096C19.8877 32.7569 21.6177 30.9352 22.4268 28.9775C20.7522 28.4504 19.0402 29.3202 17.6445 30.0413C16.2009 30.7874 14.6934 31.8514 13.5596 33.1406Z" fill="white"/>
<path id="Vector_7" d="M7.15468 34.2012C6.96837 35.6067 6.97157 37.3896 8.07025 38.4726C9.44148 39.8698 11.5675 39.6019 13.207 39.2958C15.4087 38.8848 17.8871 37.3957 19.2168 35.4119C17.5965 34.5241 15.612 35.0896 14.0066 35.5476L13.9139 35.5738C12.1222 36.0843 10.2123 36.9073 8.61428 38.0325C9.88969 36.8896 10.8191 35.2122 10.8659 33.5207C10.9085 32.0073 10.2485 30.3876 8.82613 29.665C7.83071 30.9596 7.36441 32.6225 7.15468 34.2012Z" fill="white"/>
<path id="Vector_8" d="M5.92509 44.4979C4.16633 44.461 1.75284 44.2526 0.769133 42.448L0.755292 42.4232C-0.0303966 40.8978 0.768068 39.115 1.40471 37.7955C2.16165 36.227 3.1954 34.6286 4.67309 33.4814C6.09116 34.6964 5.95383 36.4334 5.53117 37.9426C5.02761 39.7373 3.28802 41.2664 1.48668 42.1369C3.57227 41.3663 5.84949 40.9046 8.01599 40.7692L8.23637 40.7553C9.97702 40.6441 12.2425 40.4994 13.6276 41.765C11.5292 43.5335 8.55044 44.5529 5.92509 44.4979Z" fill="white"/>
</g>
</svg>
