<svg width="64" height="65" viewBox="0 0 64 65" fill="none" xmlns="http://www.w3.org/2000/svg">
<path id="Vector" fill-rule="evenodd" clip-rule="evenodd" d="M22.3131 0.132812H41.6869C48.112 0.132812 51.3237 0.132812 54.7824 1.22614C58.5584 2.60055 61.5323 5.57441 62.9067 9.35041C64 12.8085 64 16.0213 64 22.4459V41.8197C64 48.2448 64 51.4565 62.9067 54.9152C61.5323 58.6912 58.5584 61.6651 54.7824 63.0389C51.3237 64.1328 48.112 64.1328 41.6869 64.1328H22.3131C15.888 64.1328 12.6757 64.1328 9.2176 63.0389C5.4416 61.6651 2.46773 58.6912 1.09333 54.9152C0 51.4565 0 48.2448 0 41.8197V22.4459C0 16.0213 0 12.8085 1.09333 9.35041C2.46773 5.57441 5.4416 2.60055 9.2176 1.22614C12.6757 0.132812 15.888 0.132812 22.3131 0.132812ZM24.6055 24.1614V50.1956L33.3936 42.4253L42.1819 50.1956V23.6891C42.1819 18.4903 38.8841 14.796 32.5826 14.796H19.1358C22.8009 16.042 24.6055 18.8773 24.6055 24.1614Z" fill="white"/>
</svg>
