<svg width="344" height="49" viewBox="0 0 344 49" fill="none" xmlns="http://www.w3.org/2000/svg">
<path fill-rule="evenodd" clip-rule="evenodd" d="M36.7381 39.3834C39.2065 40.6315 41.7219 41.2977 44.9257 41.5514C45.5485 41.6008 47.8425 41.5672 48.5493 41.4982C52.4937 41.1134 56.1737 39.8054 58.439 37.9829C58.8752 37.632 59.1761 37.3314 59.3436 37.0788C59.5249 36.806 59.5311 36.5702 59.3619 36.3851C59.2524 36.2649 59.2364 36.26 59.0316 36.2756C58.8565 36.2889 58.6933 36.3525 58.1559 36.6165C57.3451 37.0146 56.8284 37.2276 56.0321 37.4928C54.9738 37.8448 53.9442 38.1139 52.7782 38.3426C49.2072 39.043 45.6908 39.1119 42.2315 38.5493C38.5203 37.9455 35.1758 36.5937 32.7807 34.7292C32.2316 34.3019 31.9086 34.1163 31.7138 34.1163C31.4136 34.1163 31.2761 34.3233 31.352 34.6616C31.4446 35.0758 31.8995 35.6791 32.8083 36.5929C33.9734 37.7645 35.0542 38.5319 36.7381 39.3834ZM59.9101 38.3769C59.542 38.9873 59.5035 39.2038 59.7281 39.4008C59.8871 39.5397 60.0022 39.5397 60.2869 39.3973C60.5324 39.275 61.2296 38.6368 61.5425 38.2482C62.0241 37.6503 62.4428 36.7178 62.5926 35.9096C62.6385 35.6627 62.6517 35.4245 62.6417 35.0346C62.6282 34.5094 62.6257 34.4956 62.5137 34.336C62.2085 33.9007 61.2957 33.626 60.1536 33.6257C59.2686 33.6254 58.5781 33.7794 57.7923 34.1523C57.3399 34.3669 57.0083 34.5848 56.837 34.7797C56.7294 34.9022 56.7158 34.9408 56.7329 35.0696C56.7439 35.1513 56.7913 35.2591 56.8381 35.3089C56.9147 35.3902 56.9547 35.3996 57.2351 35.3996C57.4065 35.3996 57.6628 35.3753 57.8044 35.3454C58.5725 35.184 59.7938 35.119 60.3181 35.2118C60.8765 35.3108 61.0035 35.4734 60.9169 35.9784C60.8138 36.5802 60.4016 37.5622 59.9101 38.3769ZM41.5859 28.5486C41.9033 29.8787 42.702 30.8345 43.6471 31.0152C43.901 31.0637 44.3657 31.0664 44.6071 31.0207C44.7179 30.9996 44.9368 30.9194 45.0935 30.8421C45.4464 30.6682 45.8952 30.2387 46.06 29.9171C46.1211 29.7977 46.1808 29.7001 46.1928 29.7001C46.2048 29.7001 46.2531 29.9079 46.3003 30.1619C46.3904 30.647 46.4491 30.8079 46.5503 30.8467C46.5839 30.8595 46.9298 30.8702 47.319 30.8702C48.0041 30.8702 48.029 30.8675 48.1055 30.7852L48.1847 30.7003L48.2016 26.0197C48.2187 21.3021 48.2075 20.5294 48.1207 20.4424C48.0865 20.4081 47.8325 20.3919 47.1903 20.3841C46.3422 20.3731 46.3041 20.3756 46.2296 20.4502C46.1537 20.5258 46.1523 20.5637 46.1523 22.2238C46.1523 23.255 46.1382 23.9289 46.1164 23.9424C46.0967 23.9546 45.9962 23.8394 45.8931 23.6867C45.2672 22.7592 44.2133 22.4667 43.1987 22.939C42.4015 23.3102 41.8131 24.1918 41.5517 25.4062C41.3542 26.3234 41.3686 27.6383 41.5859 28.5486ZM46.1751 26.6047C46.2432 27.9439 45.915 28.9309 45.303 29.2272C45.0764 29.337 44.6694 29.346 44.4536 29.2461C44.0979 29.0812 43.8481 28.7285 43.7005 28.1825C43.5529 27.6369 43.5083 26.876 43.586 26.2262C43.7113 25.1775 44.0548 24.6233 44.6641 24.487C44.8378 24.4479 44.903 24.4513 45.1143 24.5084C45.7544 24.6817 46.1132 25.3908 46.1751 26.6047ZM51.089 30.6473C51.4037 30.8273 51.6675 30.9263 52.0408 31.0051C52.2069 31.0404 52.4689 31.0523 52.8524 31.0429C53.6847 31.0228 54.1637 30.8682 54.7498 30.4305C55.1015 30.1678 55.4436 29.7377 55.656 29.2907C55.8684 28.8441 55.8969 28.6729 55.7727 28.5937C55.652 28.5167 54.2897 28.2213 54.1215 28.2354C54.0026 28.2455 53.9817 28.2638 53.9352 28.3977C53.9079 28.4774 53.862 28.6092 53.8313 28.6971L53.8275 28.7081C53.747 28.9378 53.478 29.2199 53.2403 29.3239C52.9449 29.4528 52.5081 29.4476 52.2431 29.3118C51.9896 29.1817 51.8065 28.9624 51.6622 28.6157C51.5426 28.3285 51.4368 27.8701 51.4368 27.6394V27.5106H53.658C55.8724 27.5106 55.8795 27.5103 55.9512 27.4307C56.0159 27.3588 56.0225 27.2919 56.0183 26.7606C56.0118 25.9685 55.908 25.4115 55.6555 24.8137C55.2799 23.924 54.6164 23.2278 53.8667 22.9366C53.5577 22.8166 53.0368 22.7168 52.7203 22.7168C52.1744 22.7168 51.4668 22.9227 51.0198 23.2116C50.1689 23.7615 49.5314 24.8132 49.3395 25.9835C49.2579 26.481 49.2579 27.4079 49.3395 27.9054C49.539 29.1213 50.1813 30.1278 51.089 30.6473ZM53.8718 25.7512C53.9231 26.0253 53.9257 26.0921 53.8852 26.1172C53.8057 26.1662 51.5369 26.161 51.4875 26.1118C51.4377 26.062 51.5353 25.573 51.6605 25.2458C51.9297 24.542 52.5584 24.2063 53.1186 24.4672C53.4843 24.6375 53.7473 25.0859 53.8718 25.7512ZM57.2708 29.1002C57.7656 30.0766 58.6205 30.7868 59.56 31.0014C59.927 31.0852 60.7778 31.055 61.119 30.946C61.8472 30.7129 62.5298 30.1913 62.963 29.5367C63.481 28.7538 63.7403 27.7349 63.6939 26.6649C63.5831 24.1023 61.7507 22.3595 59.6184 22.7885C59.0126 22.9103 58.5565 23.1574 58.0499 23.6385C57.0794 24.5596 56.6235 26.1122 56.8521 27.719C56.9103 28.129 57.1065 28.7758 57.2708 29.1002ZM61.451 28.1012C61.3102 28.6964 61.0476 29.1157 60.7037 29.2939C60.537 29.3803 60.0963 29.4192 59.9225 29.363C59.7505 29.3074 59.48 29.09 59.363 28.9133C58.9482 28.2871 58.8061 26.8692 59.0431 25.7218C59.2388 24.7745 59.7696 24.2763 60.4357 24.4146C60.9452 24.5203 61.2722 24.9516 61.4667 25.7744C61.5206 26.002 61.5335 26.2236 61.5331 26.9066C61.5325 27.6444 61.5218 27.8013 61.451 28.1012ZM32.0539 29.7565C32.2869 30.6063 32.3233 30.7169 32.397 30.7982C32.4585 30.866 32.5292 30.87 33.6236 30.87C34.6197 30.87 34.7936 30.8618 34.8433 30.812C34.8754 30.7799 34.9346 30.6398 34.9749 30.5006C35.2725 29.4724 35.3715 29.1241 35.5026 28.643C35.7709 27.6584 36.042 26.6746 36.3158 25.6915C36.8914 23.6479 37.0215 23.16 37.0109 23.0861C36.9873 22.9213 36.8748 22.9038 35.9148 22.9145C35.1446 22.923 35.011 22.9329 34.9578 22.9863C34.8938 23.0505 34.8147 23.3792 34.3144 25.661C33.8406 27.8209 33.7409 28.275 33.6921 28.4921C33.6446 28.7042 33.5827 28.8253 33.5827 28.707C33.5827 28.6492 33.3613 27.6062 33.1686 26.7557C33.0358 26.1695 32.9379 25.7295 32.6398 24.379C32.3908 23.2511 32.3312 23.0297 32.261 22.973C32.1863 22.9123 32.0857 22.9055 31.2844 22.9055C30.3249 22.9055 30.2234 22.9244 30.2234 23.1017C30.2234 23.1452 30.2986 23.4456 30.3907 23.7697C30.6342 24.6319 30.8743 25.4952 31.1109 26.3594C31.297 27.0395 31.4856 27.7189 31.6767 28.3977C31.8036 28.8503 31.9293 29.3033 32.0539 29.7565ZM38.1868 30.7127L38.2868 30.7914C38.3812 30.8654 38.4326 30.8699 39.2027 30.8695C39.6514 30.8693 40.0548 30.8595 40.0989 30.8474C40.1431 30.8356 40.1982 30.7841 40.2216 30.7329C40.252 30.6662 40.2641 29.5657 40.2641 26.8303V23.0206L40.1487 22.9611C40.0517 22.9102 39.9 22.9035 39.1874 22.913C38.4349 22.9231 38.3339 22.9318 38.2741 22.9917C38.2104 23.0553 38.2062 23.2718 38.1968 26.886L38.1868 30.7127ZM38.0976 21.5735C38.2089 21.9046 38.5446 22.2189 38.8798 22.3055C38.9454 22.3227 39.1359 22.3304 39.3027 22.3236C39.6574 22.3087 39.8967 22.2066 40.1202 21.9745C40.343 21.7433 40.413 21.546 40.414 21.147C40.4147 20.8388 40.403 20.7801 40.2992 20.5727C40.1731 20.3199 39.9964 20.1566 39.7141 20.0319C39.4709 19.9241 38.8913 19.9426 38.6553 20.0653C38.4283 20.1836 38.1619 20.4974 38.0938 20.7267C38.0197 20.9766 38.0212 21.3465 38.0976 21.5735ZM29.7609 20.2724C29.8025 20.3072 29.8506 20.3333 29.9024 20.3493C29.9439 20.36 30.3023 20.3694 30.6989 20.3721C31.4835 20.3769 31.641 20.3497 31.6981 20.1995C31.7178 20.1479 31.7333 19.3854 31.7333 18.4678C31.7333 17.5661 31.7459 16.8285 31.7614 16.8287C31.777 16.829 31.8538 16.9283 31.932 17.0498C32.1518 17.3909 32.5021 17.7184 32.8073 17.8684C33.1474 18.0353 33.4363 18.0875 33.8847 18.0629C34.51 18.0286 34.949 17.8099 35.4327 17.292C35.9077 16.7832 36.2728 15.8969 36.4011 14.941C36.4735 14.4014 36.4503 12.9948 36.3621 12.5818C36.0078 10.9213 35.2103 9.94378 34.0647 9.76571C33.5723 9.68906 33.0686 9.78892 32.6156 10.0528C32.3563 10.2038 31.9582 10.6174 31.8265 10.8724C31.7653 10.9908 31.7026 11.0752 31.6871 11.0597C31.6717 11.0442 31.6165 10.8237 31.5648 10.5697C31.4638 10.0736 31.4295 9.98035 31.3348 9.94392C31.3013 9.9314 30.9685 9.92071 30.5951 9.92071C29.9352 9.92071 29.7956 9.94111 29.7236 10.049C29.7084 10.0718 29.6956 12.3682 29.6954 15.1521C29.6948 19.9257 29.6986 20.2171 29.7609 20.2724ZM34.063 15.5449C33.9162 15.8992 33.6513 16.1811 33.3775 16.2744C32.9866 16.4076 32.5846 16.3174 32.2998 16.0326C31.9023 15.635 31.6965 14.8944 31.6957 13.8585C31.6946 12.4053 32.2219 11.4683 33.0408 11.4683C33.205 11.4683 33.5568 11.6023 33.6927 11.7167C34.1183 12.0748 34.3674 13.0148 34.327 14.1106C34.3038 14.7397 34.2297 15.1427 34.063 15.5449ZM57.7257 15.37C58.0836 16.7872 59.1043 17.801 60.4104 18.037C60.5096 18.0556 60.8284 18.0656 61.119 18.0588C62.1271 18.0373 62.7901 17.7596 63.4071 17.101C63.6849 16.8043 63.8854 16.4793 64.045 16.0663C64.1823 15.7108 64.1616 15.6068 63.9423 15.5496C63.4161 15.4123 62.5504 15.2411 62.4324 15.2506C62.275 15.2638 62.2556 15.2908 62.1157 15.6905C61.9114 16.2746 61.3052 16.5621 60.6661 16.3782C60.3723 16.2936 60.0889 15.9894 59.937 15.5953C59.8216 15.2964 59.6848 14.6248 59.7256 14.5587C59.7366 14.541 60.7372 14.5263 61.949 14.5263C63.9097 14.5263 64.195 14.5333 64.264 14.4145C64.2796 14.3877 64.2842 14.3544 64.2945 14.3131C64.3076 14.2611 64.309 13.9438 64.2976 13.608C64.2731 12.8826 64.1861 12.4302 63.9695 11.8997C63.7079 11.2592 63.4346 10.8653 62.9631 10.4497C61.8849 9.49834 60.1941 9.49637 59.0168 10.4444C57.7701 11.4483 57.2429 13.4592 57.7257 15.37ZM61.728 11.7071C61.9524 11.9724 62.1949 12.6709 62.1949 13.052V13.1668H59.7315L59.7571 12.9744C59.7959 12.6814 59.9571 12.2077 60.102 11.9606C60.3228 11.5836 60.6267 11.3971 61.0268 11.3945C61.2777 11.3925 61.5736 11.5243 61.728 11.7071ZM37.4327 17.7287L37.5347 17.8089C37.6327 17.8858 37.6682 17.8883 38.4954 17.8776C39.1369 17.8692 39.3667 17.8539 39.4033 17.8172C39.4419 17.7785 39.4566 17.2489 39.473 15.2883C39.4915 13.0869 39.5012 12.7831 39.5591 12.5847C39.7434 11.9545 40.1002 11.6561 40.6674 11.6575C40.8774 11.6579 41.1007 11.7146 41.5402 11.8791C41.9126 12.0185 41.9672 12.0039 42.0522 11.7423C42.1638 11.398 42.4153 10.3383 42.4153 10.212C42.4153 10.0355 42.2868 9.92704 41.9749 9.84068C41.4817 9.70397 40.8386 9.76276 40.3987 9.98499C40.1349 10.1182 39.7443 10.5258 39.5843 10.8345C39.512 10.9738 39.4412 11.0756 39.427 11.061C39.4127 11.0462 39.3657 10.8473 39.3224 10.6189C39.2244 10.1014 39.1891 10.0135 39.058 9.95925C38.9024 9.89483 37.5785 9.92198 37.495 9.99132C37.4378 10.0389 37.4327 10.3604 37.4327 13.886V17.7287ZM43.0076 17.7581C43.0198 17.79 43.0657 17.8305 43.1094 17.8483C43.1532 17.866 43.5671 17.8813 44.0292 17.8827C44.8203 17.885 44.8733 17.8809 44.9445 17.8097C45.0189 17.7353 45.0198 17.6812 45.024 14.0066C45.0261 11.9565 45.0245 10.2283 45.0205 10.1659C45.0046 9.92592 44.9845 9.92057 44.0496 9.92057C43.1025 9.92057 42.9833 9.9449 42.9795 10.1386C42.966 10.838 42.9913 17.7155 43.0076 17.7581ZM46.3026 17.7134C46.3232 17.7671 46.3783 17.8267 46.4254 17.8454C46.4724 17.8644 46.8772 17.8813 47.3248 17.8827C48.0934 17.885 48.1432 17.8807 48.2213 17.8082L48.304 17.7312L48.305 15.5528C48.3055 14.3548 48.3217 13.2129 48.3408 13.0157C48.4074 12.3346 48.5902 11.9483 48.9348 11.7607C49.4738 11.4675 50.1396 11.7008 50.3171 12.2454C50.4424 12.6302 50.4554 12.9176 50.4544 15.2906C50.4537 16.8761 50.4665 17.6841 50.4931 17.7338C50.5668 17.8715 50.6588 17.8851 51.51 17.8851C52.2926 17.8851 52.3474 17.8806 52.4183 17.8097C52.4922 17.7359 52.4938 17.6837 52.4941 15.4977C52.4944 13.2062 52.5161 12.7502 52.6417 12.3929C52.8178 11.8918 53.1524 11.6362 53.6262 11.6403C54.0946 11.6444 54.3714 11.8656 54.5409 12.3709C54.623 12.6159 54.6244 12.6561 54.637 15.1757L54.6496 17.7322L54.7502 17.811C54.8465 17.8876 54.8855 17.8903 55.7136 17.8781C56.5256 17.8671 56.5798 17.8619 56.6318 17.7909C56.6794 17.7257 56.6853 17.3238 56.674 14.8843C56.6613 12.132 56.6588 12.0448 56.5801 11.7483C56.2959 10.6774 55.8401 10.102 55.0678 9.83942C54.7084 9.71677 54.0966 9.71508 53.714 9.83534C53.2268 9.98851 52.7189 10.3944 52.3694 10.9099C52.3028 11.0081 52.2372 11.0887 52.2234 11.0892C52.2096 11.0898 52.1345 10.9756 52.0564 10.8354C51.8833 10.5244 51.4838 10.1148 51.229 9.98724C50.8388 9.79174 50.6536 9.74982 50.1912 9.75376C49.8468 9.75657 49.7109 9.77415 49.5337 9.83885C49.0584 10.0124 48.6681 10.3652 48.4311 10.8355C48.3585 10.9798 48.2882 11.0873 48.275 11.0739C48.2618 11.0607 48.2216 10.9019 48.1855 10.7209C48.0511 10.0445 48.0372 10.0037 47.9234 9.95658C47.8521 9.92704 47.5843 9.91663 47.0954 9.92592C46.4319 9.93787 46.3682 9.9449 46.319 10.0121C46.2737 10.0743 46.2655 10.6596 46.2655 13.8505C46.2655 16.2322 46.2792 17.6515 46.3026 17.7134ZM42.8999 8.65555C43.0393 8.96344 43.3314 9.21802 43.6609 9.31858C43.8223 9.36781 44.2045 9.35698 44.4067 9.29706C44.6871 9.2138 44.9694 8.9761 45.0833 8.72714C45.2134 8.44303 45.2413 8.03922 45.1506 7.75102C45.0613 7.46705 44.7932 7.16915 44.5205 7.051C44.242 6.92976 43.7599 6.92821 43.4912 7.04706C43.2456 7.15564 43.0075 7.39166 42.9006 7.63273C42.7793 7.90588 42.779 8.38888 42.8999 8.65555Z" fill="white"/>
<path d="M155.325 32.5084C155.372 32.5084 155.372 32.5084 155.419 32.5242C156.143 32.6186 156.851 32.7444 157.386 32.9961C157.889 33.2163 158.188 33.4994 158.455 34.0028C158.864 34.7579 158.896 35.8118 158.518 36.6141C158.235 37.2118 157.637 37.7152 157.087 37.9826C156.521 38.2657 155.954 38.3916 155.309 38.4702C154.177 38.5961 152.95 38.3601 151.943 37.8725C151.345 37.5736 150.606 37.0702 150.228 36.4253C149.961 35.9534 149.961 35.3242 150.291 34.868C150.826 34.1444 151.959 33.9871 152.808 34.0186C153.453 34.05 154.633 34.2388 155.246 34.459C155.419 34.5219 156.049 34.7736 156.159 34.8837C156.237 34.9624 156.285 35.0725 156.253 35.1826C156.112 35.6073 155.058 35.8433 154.759 35.8905C153.941 36.0163 153.532 35.7017 152.604 35.3399C152.368 35.2455 152.069 35.1511 151.833 35.1354C151.408 35.0882 150.905 35.2141 150.826 35.6702C150.779 35.9062 151.062 36.1264 151.267 36.2208C151.754 36.441 152.163 36.5039 152.651 36.5197C154.082 36.5354 155.703 36.2995 156.882 35.4657C157.04 35.3556 157.197 35.1826 157.197 34.9781C157.197 34.5534 156.458 34.286 156.458 34.286C155.671 33.9556 154.192 33.7983 153.453 33.7354C152.667 33.6725 151.408 33.5624 151.109 33.5152C150.795 33.468 150.464 33.4051 150.197 33.295C149.93 33.1691 149.662 32.9017 149.583 32.6028C149.442 32.068 149.615 31.4073 149.914 30.9669C150.7 29.8343 152.541 29.4096 153.925 29.2365C155.262 29.0635 157.417 29.0792 158.723 29.7714C158.927 29.8815 159.022 29.9759 158.99 30.1961C158.912 30.6051 158.597 30.8568 158.235 30.9826C157.842 31.1084 157.04 31.1556 156.694 31.1714C155.121 31.2657 153.217 31.2186 151.707 31.6275C151.597 31.659 151.392 31.7219 151.314 31.7848C151.078 32.0365 151.754 32.1152 151.896 32.1466C151.943 32.1624 151.943 32.1624 151.99 32.1624L155.325 32.5084ZM145.934 25.477C145.934 25.477 146.186 25.0994 146.406 24.8006C146.799 24.2657 147.507 23.5264 148.042 23.0702C148.199 22.9287 148.404 22.7714 148.404 22.7714C148.404 22.7714 148.105 22.8028 147.932 22.8343C147.523 22.9129 146.941 23.3062 146.642 23.5579C146.154 23.9826 145.619 24.659 145.855 25.2567C145.887 25.3669 145.934 25.477 145.934 25.477ZM148.655 26.2006C149.426 26.1534 150.15 25.9174 150.826 25.5556C151.487 25.1938 152.462 24.4702 152.352 23.6208C152.321 23.3534 152.147 23.1332 151.912 23.0388C151.613 22.9129 151.471 22.9287 151.094 23.0388C150.826 23.1174 150.7 23.1646 150.433 23.3219C149.678 23.7624 148.592 24.7062 148.01 25.4612C147.869 25.6343 147.743 25.8388 147.633 25.9803C147.57 26.059 147.507 26.1376 147.523 26.1691C147.554 26.232 148.356 26.232 148.655 26.2006ZM146.689 27.6478C146.61 27.7264 146.532 27.9309 146.437 28.0882C146.39 28.1669 146.312 28.2612 146.249 28.3084C146.044 28.45 145.871 28.4657 145.682 28.2927C145.415 28.0568 145.258 27.6792 145.242 27.3174C145.242 27.1601 145.258 26.9871 145.226 26.8455C145.179 26.6253 144.959 26.3893 144.833 26.1691C144.691 25.9174 144.581 25.477 144.565 25.1938C144.518 24.2972 144.99 23.4792 145.588 22.8343C146.201 22.1736 147.004 21.6388 147.885 21.2612C148.703 20.9152 149.914 20.6792 150.826 20.9938C151.125 21.0882 151.534 21.3399 151.738 21.6073C151.786 21.6545 151.817 21.7174 151.864 21.7489C151.912 21.7803 152.006 21.7803 152.1 21.7961C152.383 21.8433 152.808 22.0635 152.981 22.2051C153.327 22.5039 153.516 22.7871 153.595 23.1961C153.768 24.0141 153.296 24.9264 152.761 25.477C151.833 26.4208 150.921 27.0815 149.741 27.5534C149.222 27.7579 148.419 27.9466 147.822 27.8994C147.633 27.8837 147.444 27.8365 147.271 27.8208C147.177 27.8051 146.846 27.7264 146.815 27.7107C146.752 27.6635 146.705 27.6478 146.689 27.6478ZM147.743 29.4725C147.774 29.4725 147.837 29.4882 147.885 29.5197C148.294 29.677 148.467 30.0545 148.577 30.4792C148.813 31.4545 148.907 33.6253 148.954 34.4747C148.986 35.1039 149.001 35.7332 149.033 36.3624C149.049 36.8972 149.096 37.6051 148.986 38.0927C148.939 38.2657 148.828 38.486 148.655 38.5804C148.451 38.7062 148.01 38.7219 147.759 38.659C147.145 38.5332 146.956 38.1399 146.862 37.5421C146.658 36.1107 146.752 33.295 146.878 32.1152C146.925 31.7219 147.067 30.4635 147.271 29.9444C147.334 29.7871 147.491 29.4253 147.743 29.4725ZM129.291 31.8635C129.291 31.8635 128.395 31.9264 127.765 31.9893C126.979 32.068 125.485 32.3354 124.635 32.6343C124.383 32.7287 123.849 32.9489 123.817 33.2163C123.77 33.4837 123.943 33.7039 124.132 33.9242C124.242 34.05 124.855 34.6478 125.028 34.7893C125.752 35.4028 127.231 36.3309 128.316 36.7871C128.694 36.9444 129.307 37.1646 129.307 37.1646C129.307 37.1646 129.26 35.4028 129.276 33.6725C129.276 32.7601 129.291 31.8635 129.291 31.8635ZM145.84 32.5556C145.887 33.0275 145.777 33.9242 145.745 34.0343C145.714 34.3017 145.509 34.9309 145.462 35.0096C145.289 35.3871 145.132 35.7017 144.959 36.0163C144.66 36.5511 143.952 37.4006 143.543 37.7624C141.986 39.0995 139.579 39.8702 137.518 40.1219C136.118 40.295 134.514 40.2635 133.019 39.9961C132.516 39.9017 131.745 39.7287 131.745 39.7287C131.745 39.7287 131.745 40.0275 131.73 40.2478C131.714 40.3422 131.651 40.6096 131.604 40.6882C131.494 40.9084 131.321 41.0186 131.069 41.0815C130.754 41.1444 130.424 41.1601 130.141 41.0343C129.669 40.8298 129.496 40.3893 129.417 39.886C129.354 39.477 129.276 38.7691 129.276 38.7691C129.276 38.7691 128.93 38.5961 128.631 38.4545C127.734 38.0141 126.869 37.4635 126.114 36.9129C125.909 36.7556 125.013 36.0163 124.808 35.8275C124.258 35.3084 123.754 34.7736 123.377 34.1129C123.078 33.5938 122.999 33.1219 123.219 32.5714C123.534 31.8006 124.635 31.2186 125.39 30.8882C125.941 30.6365 127.687 30.0702 128.395 29.9759C128.741 29.9287 129.26 29.8343 129.291 29.8186C129.307 29.8028 129.307 29.8028 129.323 29.7871C129.339 29.7714 129.37 29.0006 129.354 28.7174C129.354 28.4343 129.559 26.641 129.622 26.2478C129.653 26.0433 129.81 25.241 129.968 25.0365C130.078 24.8949 130.251 24.9107 130.408 25.0051C131.226 25.5242 131.478 27.3017 131.541 28.1983C131.572 28.7489 131.604 29.5826 131.604 29.5826C131.604 29.5826 132.548 29.5511 133.13 29.5669C133.696 29.5826 134.325 29.677 134.907 29.7556C135.662 29.8815 137.125 30.1961 137.959 30.6208C138.651 30.9669 139.296 31.5646 139.516 32.1938C139.705 32.7601 139.689 33.1691 139.39 33.6882C139.06 34.2702 138.431 34.7107 137.786 34.7421C137.597 34.7579 136.873 34.6635 136.653 34.4905C136.574 34.4275 136.574 34.3017 136.637 34.223C136.653 34.1916 136.999 34.0186 137.188 33.9084C137.282 33.8612 137.377 33.7983 137.44 33.7197C137.597 33.5781 137.754 33.4208 137.739 33.232C137.723 32.9961 137.455 32.8388 137.219 32.7444C136.071 32.2882 133.774 31.9107 132.673 31.8478C132.233 31.8163 131.619 31.8006 131.619 31.8006L131.745 37.9197C131.745 37.9197 132.249 38.0141 132.658 38.077C132.894 38.1084 133.869 38.2028 134.121 38.2028C136.103 38.25 138.305 38.077 140.114 37.2275C140.916 36.85 141.64 36.3938 142.19 35.7489C142.914 34.9152 143.307 33.7669 143.197 32.5714C143.087 31.2657 142.174 29.7242 141.435 28.7803C139.5 26.295 136.181 24.2343 133.255 23.0388C130.267 21.8118 127.325 21.1039 124.163 20.9938C123.345 20.9624 121.568 21.0096 120.671 21.2612C120.545 21.2927 120.419 21.3399 120.294 21.3714C120.199 21.3871 120.058 21.45 120.01 21.4972C119.995 21.5129 119.963 21.5444 119.963 21.5444C119.963 21.5444 120.026 21.5758 120.073 21.5916C120.168 21.6388 120.577 21.6545 120.781 21.7017C120.97 21.7332 121.159 21.8275 121.237 21.9691C121.316 22.0949 121.316 22.2051 121.237 22.3152C121.033 22.5669 120.262 22.5197 119.932 22.4725C119.586 22.4096 119.145 22.3152 119.067 22.0006C118.972 21.6388 119.145 21.2927 119.334 20.9624C119.712 20.3017 120.231 19.9714 121.017 19.7511C122.118 19.4523 123.518 19.232 124.556 19.2006C126.916 19.1062 129.15 19.5309 131.446 20.223C132.752 20.6163 134.467 21.277 135.725 21.8905C136.622 22.3309 138.053 23.1174 138.84 23.6523C139.091 23.8253 140.57 24.895 140.79 25.0837C141.262 25.477 141.891 26.0275 142.347 26.4837C143.228 27.3489 144.314 28.6702 144.833 29.7399C144.959 29.9916 145.053 30.2433 145.226 30.5264C145.289 30.6208 145.525 31.2186 145.556 31.3916C145.604 31.5646 145.651 31.8163 145.667 31.832C145.745 31.8478 145.855 32.3511 145.84 32.5556ZM175.554 31.2028C174.453 31.4545 171.543 31.5961 171.543 31.5961L171.181 32.7444C171.181 32.7444 172.628 32.6186 173.698 32.7287C173.698 32.7287 174.044 32.6815 174.076 33.1219C174.091 33.5152 174.044 33.9556 174.044 33.9556C174.044 33.9556 174.028 34.223 173.651 34.286C173.258 34.3489 170.521 34.459 170.521 34.459L170.08 35.9534C170.08 35.9534 169.923 36.2995 170.285 36.2051C170.631 36.1107 173.494 35.5759 173.871 35.6545C174.264 35.7489 174.721 36.2837 174.579 36.7714C174.422 37.3691 171.559 39.1938 169.828 39.068C169.828 39.068 168.916 39.1309 168.145 37.8882C167.422 36.7084 168.413 34.4747 168.413 34.4747C168.413 34.4747 167.956 33.4365 168.287 33.0747C168.287 33.0747 168.476 32.9017 169.058 32.8545L169.765 31.4073C169.765 31.4073 168.963 31.4545 168.491 30.8725C168.051 30.3219 168.019 30.0545 168.35 29.9129C168.712 29.7399 172.046 29.1264 174.327 29.2051C174.327 29.2051 175.129 29.1264 175.806 30.5107C175.79 30.5107 176.121 31.077 175.554 31.2028ZM166.95 36.7871C166.651 37.4792 165.88 38.2186 164.921 37.7624C163.977 37.3062 162.451 34.2073 162.451 34.2073C162.451 34.2073 161.869 33.059 161.759 33.0747C161.759 33.0747 161.633 32.8545 161.554 34.1129C161.476 35.3714 161.57 37.8253 161.067 38.2028C160.595 38.5961 160.013 38.4388 159.714 37.9826C159.446 37.5421 159.336 36.4725 159.478 34.6163C159.651 32.7601 160.091 30.7781 160.642 30.1646C161.192 29.5511 161.633 29.9916 161.806 30.1646C161.806 30.1646 162.545 30.841 163.756 32.7916L163.977 33.1534C163.977 33.1534 165.078 35.0096 165.204 35.0096C165.204 35.0096 165.298 35.0882 165.377 35.0253C165.487 34.9938 165.44 34.3961 165.44 34.3961C165.44 34.3961 165.204 32.3669 164.197 28.9534C164.197 28.9534 164.04 28.5287 164.15 28.1197C164.26 27.7107 164.653 27.8994 164.653 27.8994C164.653 27.8994 166.21 28.686 166.981 31.2343C167.752 33.7826 167.233 36.095 166.95 36.7871ZM183.765 35.2612C183.058 36.5039 181.044 39.0995 178.37 38.486C177.489 40.6253 176.75 42.7961 176.325 46.0208C176.325 46.0208 176.231 46.65 175.712 46.4298C175.192 46.241 174.343 45.3916 174.17 44.1961C173.981 42.6231 174.689 39.9804 176.105 36.9444C175.696 36.268 175.413 35.3084 175.649 33.9242C175.649 33.9242 176.01 31.3759 178.574 29.0792C178.574 29.0792 178.889 28.8118 179.062 28.8905C179.251 28.9691 179.172 29.8028 179.015 30.2118C178.858 30.6208 177.709 32.5871 177.709 32.5871C177.709 32.5871 177.001 33.9242 177.19 34.9781C178.527 32.9174 181.595 28.7489 183.482 30.0545C184.112 30.5107 184.41 31.5017 184.41 32.5714C184.41 33.5152 184.19 34.5062 183.765 35.2612ZM183.215 31.9893C183.215 31.9893 183.105 31.1714 182.303 32.068C181.61 32.8388 180.368 34.2702 179.361 36.2051C180.415 36.0792 181.422 35.5129 181.736 35.2298C182.24 34.7893 183.404 33.5781 183.215 31.9893ZM198.489 31.8006H193.597C193.503 30.1332 193.298 28.5129 192.983 26.8455C192.952 26.6725 192.795 26.5466 192.622 26.5466H191.489C191.395 26.5466 191.3 26.5938 191.237 26.6725C191.174 26.7511 191.143 26.8455 191.174 26.9556C191.489 28.5759 191.694 30.1646 191.804 31.8163H187.1C186.88 31.8163 186.707 31.9893 186.707 32.2096V33.232C186.707 33.4523 186.88 33.6253 187.1 33.6253H191.882C191.882 33.877 191.882 34.0972 191.882 34.3174C191.882 35.7803 191.819 36.9916 191.678 38.3601C191.662 38.4702 191.694 38.5646 191.772 38.6433C191.835 38.7219 191.945 38.7691 192.04 38.7691H193.094C193.298 38.7691 193.471 38.6118 193.487 38.4073C193.628 37.0388 193.691 35.8118 193.691 34.3174C193.691 34.1129 193.691 33.877 193.691 33.6253H198.52C198.741 33.6253 198.914 33.4523 198.914 33.232V32.2096C198.882 31.9736 198.709 31.8006 198.489 31.8006Z" fill="white"/>
<path d="M192.307 24.1562C189.822 18.0214 185.591 12.7832 180.116 9.03939C174.501 5.18546 167.925 3.15625 161.083 3.15625C149.773 3.15625 139.296 8.77198 133.036 18.1787C132.973 18.2731 132.957 18.4147 132.988 18.5248C133.036 18.6506 133.114 18.7293 133.24 18.7765L134.121 19.0753C134.168 19.0911 134.231 19.1068 134.278 19.1068C134.436 19.1068 134.593 19.0282 134.687 18.8866C137.566 14.6709 141.451 11.1473 145.934 8.72479C150.559 6.22367 155.813 4.88659 161.098 4.88659C167.501 4.88659 173.667 6.77423 178.937 10.345C184.08 13.8214 188.092 18.6821 190.498 24.3922C190.577 24.5652 190.734 24.6753 190.923 24.6753H191.977C192.103 24.6753 192.213 24.6124 192.276 24.518C192.355 24.3922 192.355 24.2664 192.307 24.1562Z" fill="white"/>
<g clip-path="url(#clip0_8393_10052)">
<path fill-rule="evenodd" clip-rule="evenodd" d="M271.909 36.4844H265.34V27.0854H261.076V36.4844H254.305V12.2598H261.076V21.2711H265.34V12.2598H271.909V36.4844Z" fill="white"/>
<path fill-rule="evenodd" clip-rule="evenodd" d="M302.005 29.042C304.67 29.042 306.831 26.8761 306.831 24.2036C306.831 21.5318 304.67 19.3655 302.005 19.3655C299.339 19.3655 297.178 21.5318 297.178 24.2036C297.178 26.8761 299.339 29.042 302.005 29.042ZM295.865 24.2036C295.865 20.8048 298.614 18.0492 302.005 18.0492C305.396 18.0492 308.145 20.8048 308.145 24.2036C308.145 27.603 305.396 30.3585 302.005 30.3585C298.614 30.3585 295.865 27.603 295.865 24.2036ZM287.315 24.2036C288.075 24.1071 289.342 23.2364 289.788 22.6806C289.631 23.3698 289.619 25.3643 289.802 26.0535C289.293 25.2677 288.087 24.3004 287.315 24.2036ZM282.901 17.6879C283.866 17.6879 284.626 18.6427 284.626 19.7308C284.626 20.8189 283.866 21.7743 282.901 21.7743H279.585V17.6879H282.901ZM282.889 26.7666C283.854 26.7666 284.614 27.7218 284.614 28.8096C284.614 29.8978 283.854 30.8527 282.889 30.8527H279.573V26.7666H282.889ZM302.001 36.6044C308.758 36.6017 314.257 30.9736 314.256 24.1988C314.254 17.2812 308.758 11.9075 302.001 11.9023C295.251 11.8975 291.802 16.8779 290.95 18.8882C290.958 15.8704 287.991 12.3084 284.52 12.3045H273.337V36.484L283.763 36.486C287.967 36.486 290.958 32.8349 290.963 29.7041C291.922 31.6745 295.251 36.6067 302.001 36.6044Z" fill="white"/>
</g>
<defs>
<clipPath id="clip0_8393_10052">
<rect width="60" height="24.7266" fill="white" transform="translate(254.305 11.9023)"/>
</clipPath>
</defs>
</svg>
