<svg width="344" height="35" viewBox="0 0 344 35" fill="none" xmlns="http://www.w3.org/2000/svg">
<g clip-path="url(#clip0_8393_10039)">
<path d="M73.2198 5.73242V22.5002C75.2957 22.5964 77.3664 22.7127 79.4312 22.8499V26.4049C76.1672 26.1881 72.8894 26.0227 69.598 25.9099V5.73242H73.2198ZM102 5.73441L97.2839 16.6271L101.999 28.7487L101.994 28.751C100.62 28.5557 99.2449 28.3715 97.8657 28.1948L95.2179 21.3915L92.545 27.5633C91.2783 27.4239 90.0098 27.2921 88.7385 27.1685L93.3361 16.5543L89.1255 5.73441H93.0434L95.4009 11.7893L98.0222 5.73441H102ZM57.168 25.7337L57.1679 5.73434H67.2779V9.32126H60.7897V13.9701H65.6989V17.525H60.7897V25.7328L57.168 25.7337ZM43.6443 9.32156L43.6442 5.73416H54.8462V9.32131H51.056V25.831C49.8471 25.8625 48.6395 25.8998 47.4344 25.9452V9.32156H43.6443ZM31.263 26.9786V5.73476H41.3226V9.32168H34.8842V14.1805C36.3634 14.1616 38.4665 14.1402 39.7749 14.1434V17.6986C38.1371 17.6783 36.2883 17.721 34.8842 17.735V23.1171C37.0241 22.9494 39.1704 22.8027 41.3226 22.6789V26.2342C37.9542 26.4275 34.6009 26.6765 31.263 26.9786ZM24.1584 18.7603L24.1582 5.73417H27.78V27.3138C26.456 27.4495 25.1345 27.5938 23.8154 27.7462L19.6216 15.7433V28.2604C18.412 28.4173 17.2049 28.5809 16 28.7518V5.73441H19.4419L24.1584 18.7603ZM82.4191 26.6193V5.73443H86.0409V26.9173C84.8352 26.8104 83.6283 26.7115 82.4191 26.6193Z" fill="white"/>
</g>
<g clip-path="url(#clip1_8393_10039)">
<path d="M202.998 13.1729H197.663V21.966C197.663 22.363 197.508 22.7004 197.26 22.9766C197.011 23.2221 196.67 23.3445 196.268 23.3744H193.167C192.733 23.3438 192.392 23.2214 192.143 22.9766C191.895 22.7011 191.74 22.3645 191.74 21.966V13.1729H186.406V22.4257C186.437 23.652 186.654 24.7231 187.182 25.5807C187.708 26.439 188.39 27.0824 189.29 27.5108C190.221 27.9392 191.275 28.1855 192.484 28.1855H197.664V28.1243C198.781 28.1243 199.741 27.8795 200.548 27.4198C201.33 26.933 201.955 26.2306 202.348 25.3971C202.781 24.5395 202.998 23.5274 202.998 22.425V13.1729ZM149.618 13.7244C148.687 13.3266 147.664 13.1423 146.548 13.1729H143.105L141.771 13.3266C141.46 13.4184 141.305 13.4796 141.305 13.4796V6.37109H136.002V28.1863H141.306V19.3618C141.337 18.9939 141.461 18.6267 141.74 18.3818C142.019 18.137 142.33 17.984 142.763 17.984H145.865C146.238 17.984 146.579 18.1385 146.858 18.3818C147.137 18.6274 147.261 18.9946 147.292 19.3618V28.1863H152.596V18.6879C152.596 17.3698 152.317 16.2979 151.79 15.4702C151.231 14.6738 150.518 14.0924 149.618 13.7244ZM167.669 21.9667C167.638 22.3638 167.514 22.7004 167.266 22.9773C166.987 23.2221 166.646 23.3445 166.243 23.3744H163.141C162.738 23.3438 162.397 23.2214 162.148 22.9773C161.869 22.7011 161.745 22.3645 161.714 21.9667V13.1729H156.41V22.4257C156.41 23.652 156.659 24.7231 157.155 25.5807C157.651 26.439 158.364 27.0824 159.264 27.5108C160.195 27.9392 161.218 28.1855 162.459 28.1855H167.669V28.1243C168.786 28.1243 169.748 27.8795 170.524 27.4198C171.307 26.9257 171.94 26.2261 172.353 25.3971C172.756 24.5395 172.974 23.5274 173.004 22.425V13.1729H167.669V21.9667ZM177.036 28.1863H182.34V6.37109H177.036V28.1863Z" fill="white"/>
</g>
<path d="M261.992 7.89486C263.019 6.65885 263.528 5.07361 263.413 3.4707C261.839 3.62253 260.384 4.38113 259.359 5.586C258.848 6.16257 258.457 6.83454 258.207 7.56314C257.958 8.29174 257.855 9.06254 257.905 9.83106C258.689 9.84629 259.467 9.67936 260.176 9.3434C260.885 9.00745 261.507 8.51161 261.992 7.89486ZM263.317 10.1231C261.055 9.99238 259.149 11.4138 258.066 11.4138C256.984 11.4138 255.336 10.1941 253.559 10.2263C251.191 10.2927 249.038 11.6122 247.905 13.6904C245.482 17.8855 247.259 24.1345 249.618 27.5502C250.765 29.1733 252.138 31.1079 253.963 31.045C255.789 30.9821 256.354 29.9156 258.438 29.9156C260.522 29.9156 261.136 31.045 262.945 31.0047C264.754 30.9643 266.014 29.3783 267.145 27.6164C267.96 26.4126 268.597 25.0975 269.035 23.7117C266.816 22.7313 265.38 20.5402 265.368 18.1162C265.395 15.977 266.509 13.9981 268.324 12.8627C267.756 12.0518 267.009 11.3827 266.14 10.907C265.272 10.4314 264.306 10.162 263.317 10.1198M277.742 6.86705V11.4735H281.426V14.515H277.742V25.414C277.742 27.0404 278.469 27.8697 280.085 27.8697C280.528 27.8613 280.97 27.8291 281.409 27.7729V30.8385C280.689 30.9554 279.959 31.0094 279.229 30.9999C275.416 30.9999 273.946 29.5203 273.946 25.8109V14.5876H271.054V11.5397H273.865V6.87026L277.742 6.86705ZM294.301 30.832H290.262L283.477 11.5397H287.5L292.265 27.042H292.362L297.128 11.5398H301.069L294.301 30.832ZM312.038 30.832H308.549V22.926H301.053V19.4457H308.533V11.5397H312.022V19.4457H319.518V22.9276H312.038V30.832Z" fill="white"/>
<defs>
<clipPath id="clip0_8393_10039">
<rect width="86" height="23.0926" fill="white" transform="translate(16 5.73242)"/>
</clipPath>
<clipPath id="clip1_8393_10039">
<rect width="67" height="21.8152" fill="white" transform="translate(136 6.37109)"/>
</clipPath>
</defs>
</svg>
