<svg width="90" height="91" viewBox="0 0 90 91" fill="none" xmlns="http://www.w3.org/2000/svg">
<g id="Clock" clip-path="url(#clip0_8202_19979)">
<g id="Group">
<path id="Vector" d="M45 90.75C69.8528 90.75 90 70.6028 90 45.75C90 20.8972 69.8528 0.75 45 0.75C20.1472 0.75 0 20.8972 0 45.75C0 70.6028 20.1472 90.75 45 90.75Z" fill="url(#paint0_linear_8202_19979)"/>
<path id="Vector_2" d="M45 90.75C69.8528 90.75 90 70.6028 90 45.75C90 20.8972 69.8528 0.75 45 0.75C20.1472 0.75 0 20.8972 0 45.75C0 70.6028 20.1472 90.75 45 90.75Z" fill="url(#paint1_radial_8202_19979)"/>
<path id="Vector_3" d="M45 81.0645C64.5036 81.0645 80.3145 65.2536 80.3145 45.75C80.3145 26.2464 64.5036 10.4355 45 10.4355C25.4964 10.4355 9.68555 26.2464 9.68555 45.75C9.68555 65.2536 25.4964 81.0645 45 81.0645Z" fill="url(#paint2_linear_8202_19979)"/>
<path id="Vector_4" d="M45 81.0645C64.5036 81.0645 80.3145 65.2536 80.3145 45.75C80.3145 26.2464 64.5036 10.4355 45 10.4355C25.4964 10.4355 9.68555 26.2464 9.68555 45.75C9.68555 65.2536 25.4964 81.0645 45 81.0645Z" fill="url(#paint3_radial_8202_19979)"/>
<path id="Vector_5" d="M44.999 75.6582C61.5174 75.6582 74.9082 62.2674 74.9082 45.749C74.9082 29.2306 61.5174 15.8398 44.999 15.8398C28.4806 15.8398 15.0898 29.2306 15.0898 45.749C15.0898 62.2674 28.4806 75.6582 44.999 75.6582Z" fill="url(#paint4_linear_8202_19979)"/>
<path id="Vector_6" d="M45.0005 67.5518C57.041 67.5518 66.8018 57.791 66.8018 45.7505C66.8018 33.71 57.041 23.9492 45.0005 23.9492C32.96 23.9492 23.1992 33.71 23.1992 45.7505C23.1992 57.791 32.96 67.5518 45.0005 67.5518Z" fill="url(#paint5_linear_8202_19979)"/>
<path id="Vector_7" d="M47.6889 62.1445C35.7486 62.1466 25.8774 52.297 25.9128 40.3841C25.9224 37.9754 26.3355 35.6569 27.0836 33.4844C24.6443 36.9944 23.1985 41.2119 23.1992 45.7509C23.2224 57.6318 33.1196 67.529 45.0005 67.5522C54.502 67.5494 62.6913 61.2007 65.6541 52.6321C61.6874 58.3147 55.0993 62.1318 47.6889 62.1445Z" fill="url(#paint6_linear_8202_19979)"/>
<path id="Vector_8" d="M30.3352 35.7488C35.0432 38.4426 39.7729 41.1718 44.5057 43.9043C44.0553 44.6846 43.6048 45.4647 43.1543 46.2448C38.421 43.5121 33.6879 40.7817 28.9735 38.0856C28.3296 37.7173 28.1132 36.8971 28.4897 36.252C28.8662 35.6069 29.6924 35.3809 30.3352 35.7488Z" fill="url(#paint7_linear_8202_19979)"/>
<path id="Vector_9" d="M59.18 53.9162C58.4284 55.2071 56.7769 55.6578 55.4895 54.9179C51.9403 52.8789 48.3806 50.8238 44.8184 48.7668C45.7191 47.2064 46.6203 45.646 47.5208 44.0859C51.0837 46.1433 54.6475 48.1997 58.2043 50.2414C59.495 50.9822 59.9317 52.6252 59.18 53.9162Z" fill="url(#paint8_linear_8202_19979)"/>
<path id="Vector_10" d="M44.9995 26.6523C46.481 26.6523 47.6847 27.8651 47.6879 29.3573C47.6965 34.3714 47.7013 39.3856 47.702 44.3997C45.9002 44.3996 44.0986 44.3996 42.2969 44.3997C42.2976 39.3856 42.3023 34.3714 42.3109 29.3573C42.3143 27.8651 43.518 26.6523 44.9995 26.6523Z" fill="url(#paint9_linear_8202_19979)"/>
<path id="Vector_11" d="M49.0532 45.7492C49.053 47.9871 47.2372 49.803 44.9994 49.8032C42.7615 49.803 40.9455 47.9872 40.9453 45.7492C40.9455 43.5113 42.7613 41.6953 44.9994 41.6953C47.2372 41.6955 49.0532 43.5113 49.0532 45.7492Z" fill="url(#paint10_linear_8202_19979)"/>
<path id="Vector_12" d="M46.3512 45.7498C46.3512 46.496 45.7462 47.1012 44.9998 47.1012C44.2537 47.1012 43.6484 46.4962 43.6484 45.7498C43.6484 45.0037 44.2535 44.3984 44.9998 44.3984C45.746 44.3986 46.3512 45.0037 46.3512 45.7498Z" fill="url(#paint11_linear_8202_19979)"/>
</g>
</g>
<defs>
<linearGradient id="paint0_linear_8202_19979" x1="13.1803" y1="77.5697" x2="76.8199" y2="13.9301" gradientUnits="userSpaceOnUse">
<stop stop-color="#0056E0"/>
<stop offset="1" stop-color="#FC54FF"/>
</linearGradient>
<radialGradient id="paint1_radial_8202_19979" cx="0" cy="0" r="1" gradientUnits="userSpaceOnUse" gradientTransform="translate(45.0002 45.75) scale(45.457)">
<stop offset="0.0053" stop-color="#8D00DB" stop-opacity="0.66"/>
<stop offset="1" stop-color="#FC54FF" stop-opacity="0"/>
</radialGradient>
<linearGradient id="paint2_linear_8202_19979" x1="-8.03092" y1="98.7809" x2="115.552" y2="-24.8019" gradientUnits="userSpaceOnUse">
<stop stop-color="#230BE0"/>
<stop offset="1" stop-color="#FC54FF"/>
</linearGradient>
<radialGradient id="paint3_radial_8202_19979" cx="0" cy="0" r="1" gradientUnits="userSpaceOnUse" gradientTransform="translate(45 45.75) scale(35.3145)">
<stop offset="0.73" stop-color="#8D00DB" stop-opacity="0.66"/>
<stop offset="0.7717" stop-color="#9506DE" stop-opacity="0.558"/>
<stop offset="0.8358" stop-color="#AA16E5" stop-opacity="0.401"/>
<stop offset="0.9144" stop-color="#CE31F0" stop-opacity="0.209"/>
<stop offset="1" stop-color="#FC54FF" stop-opacity="0"/>
</radialGradient>
<linearGradient id="paint4_linear_8202_19979" x1="19.8885" y1="70.8595" x2="124.905" y2="-34.1569" gradientUnits="userSpaceOnUse">
<stop stop-color="#FC54FF"/>
<stop offset="0.2201" stop-color="#FD75FF"/>
<stop offset="0.7016" stop-color="#FEC8FF"/>
<stop offset="1" stop-color="white"/>
</linearGradient>
<linearGradient id="paint5_linear_8202_19979" x1="-26.7267" y1="117.478" x2="83.668" y2="7.083" gradientUnits="userSpaceOnUse">
<stop stop-color="#FC54FF"/>
<stop offset="0.1022" stop-color="#FD77FF"/>
<stop offset="0.2431" stop-color="#FDA0FF"/>
<stop offset="0.3875" stop-color="#FEC3FF"/>
<stop offset="0.5338" stop-color="#FEDDFF"/>
<stop offset="0.6827" stop-color="#FFF0FF"/>
<stop offset="0.8359" stop-color="#FFFBFF"/>
<stop offset="1" stop-color="white"/>
</linearGradient>
<linearGradient id="paint6_linear_8202_19979" x1="3.46496" y1="87.539" x2="71.3789" y2="19.6251" gradientUnits="userSpaceOnUse">
<stop stop-color="#FC54FF"/>
<stop offset="0.1022" stop-color="#FD77FF"/>
<stop offset="0.2431" stop-color="#FDA0FF"/>
<stop offset="0.3875" stop-color="#FEC3FF"/>
<stop offset="0.5338" stop-color="#FEDDFF"/>
<stop offset="0.6827" stop-color="#FFF0FF"/>
<stop offset="0.8359" stop-color="#FFFBFF"/>
<stop offset="1" stop-color="white"/>
</linearGradient>
<linearGradient id="paint7_linear_8202_19979" x1="-30.194" y1="58.7301" x2="60.9648" y2="34.3054" gradientUnits="userSpaceOnUse">
<stop stop-color="#FC54FF"/>
<stop offset="0.2201" stop-color="#FD75FF"/>
<stop offset="0.7016" stop-color="#FEC8FF"/>
<stop offset="1" stop-color="white"/>
</linearGradient>
<linearGradient id="paint8_linear_8202_19979" x1="39.6621" y1="62.7596" x2="66.8595" y2="35.5628" gradientUnits="userSpaceOnUse">
<stop stop-color="#FC54FF"/>
<stop offset="0.2201" stop-color="#FD75FF"/>
<stop offset="0.7016" stop-color="#FEC8FF"/>
<stop offset="1" stop-color="white"/>
</linearGradient>
<linearGradient id="paint9_linear_8202_19979" x1="22.4733" y1="58.8505" x2="71.1498" y2="10.1743" gradientUnits="userSpaceOnUse">
<stop stop-color="#FC54FF"/>
<stop offset="0.2201" stop-color="#FD75FF"/>
<stop offset="0.7016" stop-color="#FEC8FF"/>
<stop offset="1" stop-color="white"/>
</linearGradient>
<linearGradient id="paint10_linear_8202_19979" x1="20.4603" y1="70.2882" x2="53.209" y2="37.5395" gradientUnits="userSpaceOnUse">
<stop stop-color="#230BE0"/>
<stop offset="1" stop-color="#FC54FF"/>
</linearGradient>
<linearGradient id="paint11_linear_8202_19979" x1="31.155" y1="59.5947" x2="55.4077" y2="35.342" gradientUnits="userSpaceOnUse">
<stop stop-color="#230BE0"/>
<stop offset="1" stop-color="#FC54FF"/>
</linearGradient>
<clipPath id="clip0_8202_19979">
<rect width="90" height="90" fill="white" transform="translate(0 0.75)"/>
</clipPath>
</defs>
</svg>
