<svg width="90" height="91" viewBox="0 0 90 91" fill="none" xmlns="http://www.w3.org/2000/svg">
<g id="Crying" clip-path="url(#clip0_8202_20001)">
<g id="Group">
<g id="Group_2">
<g id="Group_3">
<path id="Vector" d="M45 90.75C69.8528 90.75 90 70.6028 90 45.75C90 20.8972 69.8528 0.75 45 0.75C20.1472 0.75 0 20.8972 0 45.75C0 70.6028 20.1472 90.75 45 90.75Z" fill="url(#paint0_linear_8202_20001)"/>
</g>
</g>
<g id="Group_4">
<g id="Group_5">
<path id="Vector_2" d="M45 58.9336C40.6382 58.9336 37.0898 62.4819 37.0898 66.8438C37.0898 68.3012 38.2692 69.4805 39.7266 69.4805C41.184 69.4805 42.3633 68.3012 42.3633 66.8438C42.3633 65.389 43.5477 64.207 45 64.207C46.4523 64.207 47.6367 65.389 47.6367 66.8438C47.6367 68.3012 48.816 69.4805 50.2734 69.4805C51.7308 69.4805 52.9102 68.3012 52.9102 66.8438C52.9102 62.4819 49.3618 58.9336 45 58.9336ZM34.4531 32.5664C33.7024 32.5664 19.3326 32.5664 18.6328 32.5664C17.1754 32.5664 15.9961 33.7457 15.9961 35.2031V88.1133C15.9961 89.5707 17.1754 90.75 18.6328 90.75H29.1797C30.6371 90.75 31.8164 89.5707 31.8164 88.1133V37.8398H34.4531C35.9105 37.8398 37.0898 36.6605 37.0898 35.2031C37.0898 33.7457 35.9105 32.5664 34.4531 32.5664ZM71.3672 32.5664C70.7138 32.5664 56.2665 32.5664 55.5469 32.5664C54.0895 32.5664 52.9102 33.7457 52.9102 35.2031C52.9102 36.6605 54.0895 37.8398 55.5469 37.8398H58.1836V88.1133C58.1836 89.5707 59.3629 90.75 60.8203 90.75H71.3672C72.8246 90.75 74.0039 89.5707 74.0039 88.1133V35.2031C74.0039 33.7457 72.8246 32.5664 71.3672 32.5664Z" fill="url(#paint1_linear_8202_20001)"/>
</g>
</g>
</g>
</g>
<defs>
<linearGradient id="paint0_linear_8202_20001" x1="45" y1="90.75" x2="45" y2="0.75" gradientUnits="userSpaceOnUse">
<stop stop-color="#A93AFF"/>
<stop offset="1" stop-color="#FF81FF"/>
</linearGradient>
<linearGradient id="paint1_linear_8202_20001" x1="45" y1="90.75" x2="45" y2="32.5664" gradientUnits="userSpaceOnUse">
<stop stop-color="#FFBEF9"/>
<stop offset="1" stop-color="#FFF1FF"/>
</linearGradient>
<clipPath id="clip0_8202_20001">
<rect width="90" height="90" fill="white" transform="translate(0 0.75)"/>
</clipPath>
</defs>
</svg>
