<svg width="90" height="91" viewBox="0 0 90 91" fill="none" xmlns="http://www.w3.org/2000/svg">
<g id="Film" clip-path="url(#clip0_8202_19945)">
<g id="Group">
<path id="Vector" d="M45 90.75C69.8528 90.75 90 70.6028 90 45.75C90 20.8972 69.8528 0.75 45 0.75C20.1472 0.75 0 20.8972 0 45.75C0 70.6028 20.1472 90.75 45 90.75Z" fill="url(#paint0_linear_8202_19945)"/>
<path id="Vector_2" d="M45 90.75C69.8528 90.75 90 70.6028 90 45.75C90 20.8972 69.8528 0.75 45 0.75C20.1472 0.75 0 20.8972 0 45.75C0 70.6028 20.1472 90.75 45 90.75Z" fill="url(#paint1_radial_8202_19945)"/>
<path id="Vector_3" d="M45.0005 13.1387C27.5521 13.2162 12.466 28.3021 12.3887 45.7505C12.466 63.1991 27.5521 78.2851 45.0005 78.3623C62.4489 78.285 77.535 63.1987 77.6123 45.7505C77.535 28.3023 62.4489 13.2158 45.0005 13.1387Z" fill="url(#paint2_linear_8202_19945)"/>
<path id="Vector_4" d="M45 70.2539C58.5331 70.2539 69.5039 59.2831 69.5039 45.75C69.5039 32.2169 58.5331 21.2461 45 21.2461C31.4669 21.2461 20.4961 32.2169 20.4961 45.75C20.4961 59.2831 31.4669 70.2539 45 70.2539Z" fill="url(#paint3_linear_8202_19945)"/>
<path id="Vector_5" d="M45.0005 65.749C56.0459 65.749 65 56.7949 65 45.7495C65 34.7041 56.0459 25.75 45.0005 25.75C33.9551 25.75 25.001 34.7041 25.001 45.7495C25.001 56.7949 33.9551 65.749 45.0005 65.749Z" fill="url(#paint4_linear_8202_19945)"/>
<path id="Vector_6" d="M45 30.2559C36.5133 30.2641 29.5131 37.2643 29.5049 45.751C29.5131 54.2377 36.5131 61.238 45 61.2461C53.4867 61.2378 60.4869 54.2377 60.4951 45.751C60.4869 37.2641 53.4867 30.2641 45 30.2559Z" fill="url(#paint5_linear_8202_19945)"/>
<path id="Vector_7" d="M45.0005 13.1387C27.5521 13.2162 12.466 28.3021 12.3887 45.7505C12.466 63.1991 27.5521 78.2851 45.0005 78.3623C62.4489 78.285 77.535 63.1987 77.6123 45.7505C77.535 28.3023 62.4489 13.2158 45.0005 13.1387Z" fill="url(#paint6_radial_8202_19945)"/>
<path id="Vector_8" d="M45 10.4355C26.1749 10.5342 9.78416 26.9249 9.68555 45.75C9.78416 64.5753 26.1749 80.9658 45 81.0645C63.8251 80.966 80.2158 64.5749 80.3145 45.75C80.2158 26.9247 63.8251 10.534 45 10.4355ZM16.6022 36.6539C18.2862 31.7155 23.7029 28.8906 28.6634 30.4576C33.6275 32.0252 36.3523 37.4164 34.7208 42.4163C33.0866 47.4212 27.7005 50.1431 22.6891 48.5133C17.6752 46.8794 14.92 41.5908 16.6022 36.6539ZM40.7988 67.8267C37.745 72.0815 31.8844 72.9562 27.6212 69.8009C23.3564 66.6458 22.2947 60.7237 25.3528 56.5263C28.4073 52.3263 34.3971 51.3864 38.6554 54.4891C42.9195 57.589 43.8518 63.5765 40.7988 67.8267ZM35.528 25.4265C35.5776 20.1749 39.8382 15.8422 45 15.8408C50.1618 15.8422 54.4224 20.1749 54.472 25.4265C54.5177 30.6792 50.2571 34.937 45 34.9395C39.7429 34.9368 35.4825 30.679 35.528 25.4265ZM62.3788 69.8007C58.1156 72.9562 52.255 72.0817 49.2012 67.8265C46.1482 63.5765 47.0805 57.5894 51.3446 54.489C55.6029 51.3864 61.5927 52.3261 64.6472 56.5261C67.7053 60.7234 66.6438 66.6456 62.3788 69.8007ZM67.3109 48.5133C62.2995 50.1431 56.9134 47.421 55.2792 42.4163C53.6477 37.4162 56.3725 32.0252 61.3366 30.4576C66.297 28.8906 71.7138 31.7153 73.3978 36.6539C75.08 41.591 72.3248 46.8794 67.3109 48.5133Z" fill="url(#paint7_linear_8202_19945)"/>
<path id="Vector_9" d="M45 34.9395C39.0584 34.9424 34.1923 39.8084 34.1895 45.75C34.1923 51.6916 39.0584 56.5577 45 56.5605C50.9416 56.5577 55.8077 51.6918 55.8105 45.75C55.8077 39.8082 50.9416 34.9424 45 34.9395Z" fill="url(#paint8_linear_8202_19945)"/>
<path id="Vector_10" d="M45 51.1543C47.9853 51.1543 50.4053 48.7343 50.4053 45.749C50.4053 42.7638 47.9853 40.3438 45 40.3438C42.0148 40.3438 39.5947 42.7638 39.5947 45.749C39.5947 48.7343 42.0148 51.1543 45 51.1543Z" fill="url(#paint9_linear_8202_19945)"/>
<path id="Vector_11" d="M46.3512 48.4531C43.3716 48.4532 40.9456 46.0276 40.9467 43.0487C40.9468 42.7194 40.9781 42.3972 41.0351 42.084C40.1423 43.0487 39.5947 44.3366 39.5947 45.7504C39.5951 48.7285 42.0219 51.1554 45 51.1557C47.649 51.1557 49.8598 49.2346 50.3172 46.7148C49.329 47.7821 47.9169 48.4527 46.3512 48.4531Z" fill="url(#paint10_linear_8202_19945)"/>
</g>
</g>
<defs>
<linearGradient id="paint0_linear_8202_19945" x1="13.1803" y1="77.5697" x2="76.8197" y2="13.9303" gradientUnits="userSpaceOnUse">
<stop stop-color="#364AFF"/>
<stop offset="1" stop-color="#FC54FF"/>
</linearGradient>
<radialGradient id="paint1_radial_8202_19945" cx="0" cy="0" r="1" gradientUnits="userSpaceOnUse" gradientTransform="translate(45 45.75) scale(45.457)">
<stop offset="0.095" stop-color="#8D00DB" stop-opacity="0.66"/>
<stop offset="0.2822" stop-color="#9F0DE1" stop-opacity="0.523"/>
<stop offset="0.6541" stop-color="#CC30F0" stop-opacity="0.252"/>
<stop offset="1" stop-color="#FC54FF" stop-opacity="0"/>
</radialGradient>
<linearGradient id="paint2_linear_8202_19945" x1="9.72418" y1="81.0268" x2="95.159" y2="-4.40799" gradientUnits="userSpaceOnUse">
<stop stop-color="#230BE0"/>
<stop offset="1" stop-color="#FC54FF"/>
</linearGradient>
<linearGradient id="paint3_linear_8202_19945" x1="9.1974" y1="81.5526" x2="66.5144" y2="24.2356" gradientUnits="userSpaceOnUse">
<stop stop-color="#B31DE7"/>
<stop offset="0.3219" stop-color="#CD4BEF"/>
<stop offset="0.7811" stop-color="#F088FB"/>
<stop offset="1" stop-color="#FDA0FF"/>
</linearGradient>
<linearGradient id="paint4_linear_8202_19945" x1="20.2936" y1="70.4564" x2="72.9713" y2="17.7788" gradientUnits="userSpaceOnUse">
<stop stop-color="#B31DE7"/>
<stop offset="0.3219" stop-color="#CD4BEF"/>
<stop offset="0.7811" stop-color="#F088FB"/>
<stop offset="1" stop-color="#FDA0FF"/>
</linearGradient>
<linearGradient id="paint5_linear_8202_19945" x1="31.6183" y1="59.1327" x2="71.2044" y2="19.5466" gradientUnits="userSpaceOnUse">
<stop stop-color="#B31DE7"/>
<stop offset="0.3219" stop-color="#CD4BEF"/>
<stop offset="0.7811" stop-color="#F088FB"/>
<stop offset="1" stop-color="#FDA0FF"/>
</linearGradient>
<radialGradient id="paint6_radial_8202_19945" cx="0" cy="0" r="1" gradientUnits="userSpaceOnUse" gradientTransform="translate(45.0005 45.7505) scale(34.3545)">
<stop offset="0.095" stop-color="#8D00DB" stop-opacity="0.66"/>
<stop offset="0.3191" stop-color="#B01BE6" stop-opacity="0.497"/>
<stop offset="0.6198" stop-color="#D93AF4" stop-opacity="0.277"/>
<stop offset="0.8571" stop-color="#F34DFC" stop-opacity="0.104"/>
<stop offset="1" stop-color="#FC54FF" stop-opacity="0"/>
</radialGradient>
<linearGradient id="paint7_linear_8202_19945" x1="-72.9448" y1="163.695" x2="76.0746" y2="14.6754" gradientUnits="userSpaceOnUse">
<stop stop-color="#FC54FF"/>
<stop offset="0.6113" stop-color="#FEBFFF"/>
<stop offset="1" stop-color="white"/>
</linearGradient>
<linearGradient id="paint8_linear_8202_19945" x1="4.92293" y1="85.8272" x2="64.4045" y2="26.3455" gradientUnits="userSpaceOnUse">
<stop stop-color="#FC54FF"/>
<stop offset="0.6113" stop-color="#FEBFFF"/>
<stop offset="1" stop-color="white"/>
</linearGradient>
<linearGradient id="paint9_linear_8202_19945" x1="32.008" y1="58.741" x2="59.8535" y2="30.8955" gradientUnits="userSpaceOnUse">
<stop stop-color="#FC54FF"/>
<stop offset="0.6113" stop-color="#FEBFFF"/>
<stop offset="1" stop-color="white"/>
</linearGradient>
<linearGradient id="paint10_linear_8202_19945" x1="37.7805" y1="52.9731" x2="56.8129" y2="33.9407" gradientUnits="userSpaceOnUse">
<stop stop-color="#FC54FF"/>
<stop offset="0.6113" stop-color="#FEBFFF"/>
<stop offset="1" stop-color="white"/>
</linearGradient>
<clipPath id="clip0_8202_19945">
<rect width="90" height="90" fill="white" transform="translate(0 0.75)"/>
</clipPath>
</defs>
</svg>
